<?xml version="1.0" encoding="UTF-8" standalone="no"?>
<!-- Created with Inkscape (http://www.inkscape.org/) -->
<svg
   xmlns:dc="http://purl.org/dc/elements/1.1/"
   xmlns:cc="http://creativecommons.org/ns#"
   xmlns:rdf="http://www.w3.org/1999/02/22-rdf-syntax-ns#"
   xmlns:svg="http://www.w3.org/2000/svg"
   xmlns="http://www.w3.org/2000/svg"
   xmlns:sodipodi="http://sodipodi.sourceforge.net/DTD/sodipodi-0.dtd"
   xmlns:inkscape="http://www.inkscape.org/namespaces/inkscape"
   width="500"
   height="120"
   id="svg2"
   sodipodi:version="0.32"
   inkscape:version="0.46"
   version="1.0"
   sodipodi:docname="home-art.svg"
   inkscape:output_extension="org.inkscape.output.svg.inkscape">
  <defs
     id="defs4" />
  <sodipodi:namedview
     id="base"
     pagecolor="#ffffff"
     bordercolor="#666666"
     borderopacity="1.0"
     gridtolerance="10000"
     guidetolerance="10"
     objecttolerance="10"
     inkscape:pageopacity="0.0"
     inkscape:pageshadow="2"
     inkscape:zoom="5.6"
     inkscape:cx="471.58976"
     inkscape:cy="10.672884"
     inkscape:document-units="px"
     inkscape:current-layer="layer1"
     showgrid="false"
     inkscape:window-width="1280"
     inkscape:window-height="976"
     inkscape:window-x="0"
     inkscape:window-y="-3"
     showguides="true"
     inkscape:guide-bbox="true" />
  <metadata
     id="metadata7">
    <rdf:RDF>
      <cc:Work
         rdf:about="">
        <dc:format>image/svg+xml</dc:format>
        <dc:type
           rdf:resource="http://purl.org/dc/dcmitype/StillImage" />
      </cc:Work>
    </rdf:RDF>
  </metadata>
  <g
     inkscape:label="Layer 1"
     inkscape:groupmode="layer"
     id="layer1">
    <path
       style="fill:none;fill-rule:evenodd;stroke:#000000;stroke-width:1px;stroke-linecap:butt;stroke-linejoin:miter;stroke-opacity:1"
       d="M 33.247739,103.90803 C 49.78373,99.698908 43.508834,80.117058 30.046145,81.952538 C 15.552081,83.928628 13.806789,113.66157 37.040298,108.10573 C 60.273806,102.54989 77.579427,22.593608 95.749071,6.401388 C 84.978764,63.723458 83.185297,108.93187 83.185297,108.93187 C 83.185297,108.93187 90.003827,57.792898 63.361053,63.980078 C 40.232563,69.351148 70.461314,114.06815 93.539361,103.88111 C 116.70974,93.653318 156.55777,12.462298 132.1777,12.462298 C 109.44786,12.462298 109.97643,117.22412 134.70307,107.66918 C 150.75455,101.46652 150.89287,78.276481 160.42422,70.683786 C 177.82517,56.822167 199.88872,67.324708 171.9917,65.296248 C 143.75308,63.242958 149.78265,117.86277 178.21668,106.78901 C 210.63873,94.162108 249.80934,12.115668 224.45835,12.115678 C 202.57625,12.115678 215.57619,108.93187 213.05081,108.93187 C 210.52543,108.93187 199.03123,77.198718 209.63783,68.612428 C 220.24443,60.026128 234.30462,59.939468 241.37569,71.556228 C 248.44676,83.172978 232.34221,108.93187 246.37569,108.93187 C 262.42609,108.93187 281.78179,63.454698 281.78179,63.454698 C 281.78179,63.454698 263.07367,117.53847 279.74118,106.93187 C 296.4087,96.325268 295.92393,75.576528 311.58129,69.515618 C 327.23866,63.454698 310.61175,108.93187 310.61175,108.93187 C 310.61175,108.93187 317.13713,68.505458 335.31988,69.010538 C 353.50262,69.515618 334.85541,108.93187 334.85541,108.93187 C 334.85541,108.93187 344.22271,70.255288 356.84961,70.760358 C 369.47652,71.265438 351.29172,107.54816 364.39494,108.93187 C 378.69199,110.44165 395.81138,65.186838 395.81138,65.186838 C 395.81138,65.186838 380.88988,113.63284 398.45441,108.93187 C 418.47065,103.57473 423.45697,101.23878 435.95154,85.912828 C 450.18959,68.448308 407.88127,67.161946 407.22346,92.667908 C 406.66275,114.409 426.83277,109.9305 435.20044,102.23843 C 442.35304,95.663322 443.77204,75.542616 439.58666,75.489662 C 435.39522,75.43663 426.63691,118.05786 457.8465,107.82434"
       id="path2395"
       sodipodi:nodetypes="cscccszssszsssssscsscscsscsssszs" />
    <path
       style="fill:none;fill-rule:evenodd;stroke:#000000;stroke-width:1px;stroke-linecap:butt;stroke-linejoin:miter;stroke-opacity:1"
       d="M 284.28572,38.928571 C 280.35714,52.142857 297.14286,37.5 297.14286,37.5"
       id="path2436" />
    <path
       style="fill:none;fill-rule:evenodd;stroke:#000000;stroke-width:1px;stroke-linecap:butt;stroke-linejoin:miter;stroke-opacity:1"
       d="M 399.64286,41.428571 C 390,53.571428 412.85714,42.142857 412.85714,42.142857"
       id="path2438" />
  </g>
</svg>
