<?xml version="1.0" encoding="UTF-8" standalone="no"?>
<!-- Created with Inkscape (http://www.inkscape.org/) -->

<svg
   xmlns:dc="http://purl.org/dc/elements/1.1/"
   xmlns:cc="http://creativecommons.org/ns#"
   xmlns:rdf="http://www.w3.org/1999/02/22-rdf-syntax-ns#"
   xmlns:svg="http://www.w3.org/2000/svg"
   xmlns="http://www.w3.org/2000/svg"
   xmlns:sodipodi="http://sodipodi.sourceforge.net/DTD/sodipodi-0.dtd"
   xmlns:inkscape="http://www.inkscape.org/namespaces/inkscape"
   id="svg2829"
   version="1.1"
   inkscape:version="0.47 r22583"
   width="32"
   height="32"
   sodipodi:docname="icon-s60.svg">
  <metadata
     id="metadata2835">
    <rdf:RDF>
      <cc:Work
         rdf:about="">
        <dc:format>image/svg+xml</dc:format>
        <dc:type
           rdf:resource="http://purl.org/dc/dcmitype/StillImage" />
        <dc:title />
      </cc:Work>
    </rdf:RDF>
  </metadata>
  <defs
     id="defs2833" />
  <sodipodi:namedview
     pagecolor="#ffffff"
     bordercolor="#666666"
     borderopacity="1"
     objecttolerance="10"
     gridtolerance="10"
     guidetolerance="10"
     inkscape:pageopacity="0"
     inkscape:pageshadow="2"
     inkscape:window-width="1280"
     inkscape:window-height="754"
     id="namedview2831"
     showgrid="false"
     inkscape:zoom="7.6595745"
     inkscape:cx="-9.6901143"
     inkscape:cy="17.251274"
     inkscape:window-x="0"
     inkscape:window-y="-1"
     inkscape:window-maximized="1"
     inkscape:current-layer="svg2829" />
  <rect
     transform="matrix(0.8114565,-0.58441282,0.49596553,0.86834221,0,0)"
     ry="10.036257"
     rx="0"
     y="27.454433"
     x="2.6570845"
     height="10.036257"
     width="13.39432"
     id="rect3592"
     style="fill:#6f75ff;fill-opacity:1;stroke:none"
     inkscape:transform-center-x="3.6555555"
     inkscape:transform-center-y="-0.78333333" />
  <rect
     style="fill:#fff56f;fill-opacity:1;stroke:none"
     id="rect3590"
     width="15.788651"
     height="13.507227"
     x="3.9844697"
     y="15.714149"
     rx="0"
     ry="13.507227"
     transform="matrix(0.99764763,0.06855075,-0.09165062,0.99579122,0,0)" />
  <rect
     transform="matrix(0.96620162,0.25778757,-0.28010794,0.95996851,0,0)"
     ry="13.507227"
     rx="0"
     y="-2.238611"
     x="16.115179"
     height="13.507227"
     width="15.788651"
     id="rect3588"
     style="fill:#cdffcd;fill-opacity:1;stroke:none" />
  <rect
     style="fill:#ffcdcd;fill-opacity:1;stroke:none"
     id="rect2814"
     width="14.1"
     height="12.533334"
     x="0.16127184"
     y="4.6127076"
     rx="0"
     ry="12.533334"
     transform="matrix(0.96561576,-0.25997347,0.25997347,0.96561576,0,0)" />
  <path
     id="path2845"
     d="m 0.52978507,18.928968 c 0.0745104,-0.100669 0.26791047,-0.111413 0.42977795,-0.02387 0.17887728,0.09672 0.12574338,0.168476 -0.1354733,0.183012 -0.23637761,0.01326 -0.36881479,-0.05843 -0.29430443,-0.159098 l -2.2e-7,-4.8e-5 z M 2.8098461,17.930079 c 0.068716,-0.150203 0.4200907,-0.412097 0.7808337,-0.58199 0.5168395,-0.243406 0.6820488,-0.216832 0.779251,0.125375 0.094253,0.331827 -0.00749,0.389915 -0.4312525,0.246227 -0.340134,-0.115322 -0.5546066,-0.05822 -0.5546066,0.14772 0,0.184675 -0.1573117,0.335773 -0.3495815,0.335773 -0.1922696,0 -0.2933597,-0.122891 -0.2246441,-0.273105 z m 0.073374,-6.80253 C 2.9431747,7.6048906 3.0224114,4.6760847 3.0593024,4.6190962 3.0961934,4.5621099 4.4456625,4.066021 6.0581236,3.5166848 l 2.9317486,-0.9987923 0,0.6624554 c 0,0.5892797 -0.253876,0.7455868 -2.2983789,1.4150739 l -2.2983781,0.7526185 -0.06549,2.3379931 c -0.075496,2.6952546 -0.1880749,2.6041896 2.1413049,1.7321285 1.9916793,-0.745635 2.0724773,-0.746474 2.0724773,-0.021454 0,0.4518932 -0.2922865,0.6969051 -1.2893337,1.0807921 C 6.54294,10.750529 5.58806,11.121077 5.130118,11.300935 l -0.8326218,0.327016 -0.064307,2.556973 c -0.063969,2.543505 -0.067979,2.559056 -0.7616414,2.95224 l -0.6973349,0.395263 0.1090087,-6.404837 -9e-7,-4.1e-5 z m 5.2704524,5.680894 c 0.074514,-0.100669 0.2679098,-0.111413 0.4297773,-0.02387 0.1788775,0.09672 0.1257441,0.168476 -0.1354727,0.183011 -0.2363778,0.01326 -0.368815,-0.05845 -0.2943046,-0.159099 l 0,-4.6e-5 z m 4.311791,-0.710368 c 0.364304,-0.224016 0.377881,-0.27975 0.07234,-0.297046 -0.464644,-0.0263 -1.305609,-1.422501 -1.305609,-2.167618 0,-0.302477 0.176582,-0.703344 0.392406,-0.890815 0.362099,-0.314534 0.359776,-0.326923 -0.03008,-0.160448 -0.376794,0.160906 -0.407819,0.05841 -0.286929,-0.948009 0.389795,-3.2450729 2.13969,-5.5707382 4.354423,-5.787163 1.172857,-0.1146233 1.349941,-0.049296 1.907136,0.7034618 0.494694,0.6683204 0.614226,1.1060321 0.614226,2.2491944 0,0.7806632 -0.157057,2.0420848 -0.349003,2.8031578 -0.364703,1.446006 -1.621539,3.400347 -2.430451,3.779274 -0.407915,0.191087 -0.365482,0.249163 0.312902,0.428287 0.687335,0.181493 0.645559,0.202851 -0.336348,0.171946 -0.616637,-0.01952 -1.625682,0.06074 -2.242319,0.178118 -0.732384,0.139405 -0.965649,0.117782 -0.672696,-0.06234 z m 3.031831,-2.14045 c 0.686334,-0.660237 1.564928,-3.347432 1.564928,-4.7863553 0,-1.4061644 -0.570543,-2.1765658 -1.61192,-2.1765658 -0.746524,0 -1.043801,0.1862419 -1.624017,1.0173611 -0.796087,1.1403563 -1.248703,2.836924 -1.248703,4.680586 0,2.158749 1.372482,2.753381 2.919712,1.264974 z m 4.640026,1.625125 c 0.21345,-0.116962 0.213457,-0.276253 6e-6,-0.738015 -0.222539,-0.481422 -0.162426,-1.154545 0.329498,-3.689315 0.330936,-1.7052504 0.66967,-3.3390125 0.752745,-3.630585 0.121155,-0.4252416 0.02996,-0.5301311 -0.460986,-0.5301311 -0.518598,0 -0.569411,-0.069353 -0.33288,-0.4543977 0.153524,-0.2499199 0.416712,-0.4543978 0.584854,-0.4543978 0.168138,0 0.572813,-0.5452792 0.89927,-1.211729 0.760851,-1.5532486 1.064558,-1.5532486 0.870312,0 l -0.151543,1.211729 0.804521,0 c 0.565645,0 0.804524,0.1349205 0.804524,0.4543978 0,0.3330802 -0.256048,0.4543977 -0.959014,0.4543977 l -0.959015,0 -0.651053,3.2117761 c -0.725113,3.577132 -0.649281,4.282301 0.442695,4.116597 0.520292,-0.07895 0.597669,8.8e-4 0.498308,0.514185 -0.0776,0.400885 0.0077,0.652656 0.250708,0.739919 0.202577,0.07275 -0.388458,0.137331 -1.313415,0.143503 -0.924956,0.0063 -1.559247,-0.05591 -1.409535,-0.137934 z m 4.874948,-0.849507 c -1.095037,-1.479367 -0.484296,-5.3913183 1.16171,-7.441068 0.835932,-1.0409752 1.109639,-1.2062666 1.997461,-1.2062666 0.565836,0 1.210132,0.1311117 1.431763,0.2913554 1.352789,0.9780926 1.065068,5.1915412 -0.514737,7.5379302 -1.161038,1.724419 -3.115031,2.116563 -4.076197,0.818049 z m 3.125937,-1.041021 C 29.263073,12.402053 29.812478,8.7259116 29.050442,7.5883347 27.754821,5.654216 25.408183,9.1231882 25.62488,12.65225 c 0.109973,1.791031 1.394926,2.322722 2.513326,1.039972 z"
     style="fill:#9a0404"
     sodipodi:nodetypes="csscccsssssccsccccccsssccccccccsscccsssssssssssssccssssccssssssscccscccssssccssssccssc" />
  <path
     id="path2843"
     d="m 4.5904256,24.987446 c 0,-4.019575 0.016227,-4.112428 0.7193133,-4.112428 0.7097098,0 0.7166916,0.04995 0.5230998,3.741695 L 5.6366374,28.358409 7.8052508,24.646911 C 9.5691871,21.628 10.087049,20.960518 10.580411,21.069939 c 0.653162,0.144868 1.019665,2.133331 1.035701,5.619202 l 0.0077,1.701694 1.712415,-3.616099 c 1.316938,-2.780982 1.853362,-3.6161 2.322731,-3.6161 0.546964,0 0.494042,0.228172 -0.509827,2.198019 -2.983938,5.855285 -2.91082,5.743218 -3.747136,5.743218 -0.747429,0 -0.796783,-0.108448 -0.871257,-1.914405 -0.04344,-1.052922 -0.0517,-2.584448 -0.01836,-3.403387 0.03326,-0.818941 -0.05524,-1.488983 -0.196706,-1.488983 -0.141489,0 -1.1009763,1.531525 -2.1322142,3.403388 -1.6818609,3.052845 -1.9634608,3.403387 -2.734031,3.403387 l -0.8590376,0 0,-4.112427 2.89e-5,0 z m 11.6779564,3.219755 c -0.525337,-0.832503 0.13394,-2.655202 1.168343,-3.230015 0.428943,-0.238365 1.55913,-0.511663 2.511529,-0.607327 l 1.731633,-0.173938 -0.100884,-1.022316 -0.100883,-1.022316 -1.755651,0.03902 c -1.285093,0.02857 -1.755651,-0.065 -1.755651,-0.349115 0,-0.37542 0.787426,-0.639576 2.173665,-0.729196 2.815367,-0.182018 3.070624,0.30837 2.328333,4.472991 -0.411621,2.309382 -0.706656,3.231268 -1.034126,3.231268 -0.252001,0 -0.458187,-0.198673 -0.458187,-0.441506 0,-0.399598 -0.07055,-0.399598 -0.743226,0 -0.408773,0.242828 -1.381627,0.441506 -2.161894,0.441506 -1.108888,0 -1.502594,-0.132998 -1.803005,-0.609056 z m 3.388996,-0.250197 c 0.703809,-0.319454 1.653525,-1.691162 1.653525,-2.388241 0,-0.745096 -2.221547,-0.566487 -3.19209,0.256637 -1.660463,1.408257 -0.477774,3.046809 1.538565,2.131604 z m 4.999676,0.221128 c 0.0011,-0.194994 0.301177,-2.460366 0.666763,-5.034178 0.365587,-2.573812 0.665629,-4.839193 0.666762,-5.034178 0.0011,-0.194994 0.227788,-0.354521 0.503671,-0.354521 0.311518,0 0.501614,0.26751 0.501614,0.70588 0,0.859657 -0.970777,8.542795 -1.191922,9.433382 -0.164614,0.662953 -1.150502,0.906751 -1.146888,0.283615 z m 4.010393,-0.709038 c -2.53e-4,-0.428971 0.176566,-2.79007 0.392939,-5.24689 0.332016,-3.77001 0.477016,-4.466949 0.929359,-4.466949 0.486938,0 0.49812,0.445553 0.122228,4.870596 -0.227547,2.678828 -0.490356,5.039927 -0.583995,5.24689 -0.300539,0.664232 -0.860052,0.401783 -0.860531,-0.403647 z"
     style="fill:#630303"
     sodipodi:nodetypes="cscccscccssssssscccccscccccsssssssccssccsssssccssssc" />
</svg>
